# File created by Blade
# Date/Time:  Tue Sep 30 19:36:22 2014
#---------------------------------------------------------
:version 1.10
:name HOM
:units
  mass 1.0
  length 1.000000
  angle deg
:documentation
     Acclaim Skeleton File
:root
   axis xyz
   order TX TY TZ RX RY RZ
   position 0.000000 0.000000 0.000000
   orientation 0 0 0
:bonedata
   begin
      id 1
      name Spine_dum
      direction 0.000000 1.000000 0.000000
      length 3.241213
      axis 0.0 0.0 0.0 xyz
   end
   begin
      id 2
      name LeftUpLeg_dum
      direction 1.000000 0.000000 0.000000
      length 3.434019
      axis 0.0 0.0 0.0 xyz
   end
   begin
      id 3
      name RightUpLeg_dum
      direction -1.000000 0.000000 0.000000
      length 3.434019
      axis 0.0 0.0 0.0 xyz
   end
   begin
      id 4
      name Spine
      direction 0.000000 1.000000 0.000000
      length 0.000000
      axis 0.0 0.0 0.0 xyz
      dof rx ry rz
   end
   begin
      id 5
      name Spine_dum1
      direction 0.000000 1.000000 0.000000
      length 18.382958
      axis 0.0 0.0 0.0 xyz
   end
   begin
      id 6
      name Spine_dum2
      direction 0.000000 1.000000 0.000000
      length 12.828261
      axis 0.0 0.0 0.0 xyz
   end
   begin
      id 7
      name Spine_dum3
      direction 0.000000 1.000000 0.000000
      length 12.828261
      axis 0.0 0.0 0.0 xyz
   end
   begin
      id 8
      name Head
      direction 0.000000 1.000000 0.000000
      length 4.527550
      axis 0.0 0.0 0.0 xyz
      dof rx ry rz
   end
   begin
      id 9
      name LeftShoulder
      direction 1.000000 0.000000 0.000000
      length 7.748055
      axis 0.0 0.0 -90.0 xyz
      dof rx ry rz
   end
   begin
      id 10
      name LeftArm
      direction 1.000000 0.000000 0.000000
      length 10.635614
      axis 0.0 0.0 -90.0 xyz
      dof rx ry rz
   end
   begin
      id 11
      name LeftForeArm
      direction 1.000000 0.000000 0.000000
      length 8.346755
      axis 0.0 0.0 -90.0 xyz
      dof ry rz rx
   end
   begin
      id 12
      name LeftHand
      direction 0.000000 0.000000 0.000000
      length 0.000000
      axis 0.0 0.0 -90.0 xyz
      dof rx ry rz
   end
   begin
      id 13
      name LeftHand_dum1
      direction 0.000000 0.000000 0.000000
      length 0.000000
      axis 0.0 0.0 -90.0 xyz
   end
   begin
      id 14
      name LeftHand_dum2
      direction 1.000000 0.000000 0.000000
      length 3.937000
      axis 0.0 0.0 -90.0 xyz
   end
   begin
      id 15
      name LeftHandThumb1
      direction 0.000000 0.000000 1.000000
      length 3.937000
      axis 0.0 0.0 -90.0 xyz
      dof rx rz ry
   end
   begin
      id 16
      name RightShoulder
      direction -1.000000 0.000000 0.000000
      length 7.748055
      axis 0.0 0.0 90.0 xyz
      dof rx ry rz
   end
   begin
      id 17
      name RightArm
      direction -1.000000 0.000000 0.000000
      length 10.635614
      axis 0.0 0.0 90.0 xyz
      dof rx ry rz
   end
   begin
      id 18
      name RightForeArm
      direction -1.000000 0.000000 0.000000
      length 8.346755
      axis 0.0 0.0 90.0 xyz
      dof ry rz rx
   end
   begin
      id 19
      name RightHand
      direction 0.000000 0.000000 0.000000
      length 0.000000
      axis 0.0 0.0 90.0 xyz
      dof rx ry rz
   end
   begin
      id 20
      name RightHand_dum1
      direction 0.000000 0.000000 0.000000
      length 0.000000
      axis 0.0 0.0 90.0 xyz
   end
   begin
      id 21
      name RightHand_dum2
      direction -1.000000 0.000000 0.000000
      length 3.937000
      axis 0.0 0.0 90.0 xyz
   end
   begin
      id 22
      name RightHandThumb1
      direction 0.000000 0.000000 1.000000
      length 3.937000
      axis 0.0 0.0 90.0 xyz
      dof rx rz ry
   end
   begin
      id 23
      name LeftUpLeg
      direction 0.000000 -1.000000 0.000000
      length 15.713025
      axis 0.0 0.0 0.0 xyz
      dof rx ry rz
   end
   begin
      id 24
      name LeftLeg
      direction 0.000000 -1.000000 0.000000
      length 14.435119
      axis 0.0 0.0 0.0 xyz
      dof rx ry rz
   end
   begin
      id 25
      name LeftFoot
      direction 0.000000 -0.258819 0.965926
      length 4.938895
      axis 15.0 0.0 0.0 xyz
      dof rx ry rz
   end
   begin
      id 26
      name LeftToeBase
      direction 0.000000 0.000000 1.000000
      length 2.952750
      axis 0.0 0.0 0.0 xyz
      dof rx ry rz
   end
   begin
      id 27
      name RightUpLeg
      direction 0.000000 -1.000000 0.000000
      length 15.713025
      axis 0.0 0.0 0.0 xyz
      dof rx ry rz
   end
   begin
      id 28
      name RightLeg
      direction 0.000000 -1.000000 0.000000
      length 14.435119
      axis 0.0 0.0 0.0 xyz
      dof rx ry rz
   end
   begin
      id 29
      name RightFoot
      direction 0.000000 -0.258819 0.965926
      length 4.938895
      axis 15.0 0.0 0.0 xyz
      dof rx ry rz
   end
   begin
      id 30
      name RightToeBase
      direction 0.000000 0.000000 1.000000
      length 2.952750
      axis 0.0 0.0 0.0 xyz
      dof rx ry rz
   end
:hierarchy
   begin
      root Spine_dum LeftUpLeg_dum RightUpLeg_dum
      Spine_dum Spine
      LeftUpLeg_dum LeftUpLeg
      RightUpLeg_dum RightUpLeg
      Spine Spine_dum1 Spine_dum2 Spine_dum3
      Spine_dum1 Head
      Spine_dum2 LeftShoulder
      Spine_dum3 RightShoulder
      LeftShoulder LeftArm
      LeftArm LeftForeArm
      LeftForeArm LeftHand
      LeftHand LeftHand_dum1 LeftHand_dum2
      LeftHand_dum1 LeftHandThumb1
      RightShoulder RightArm
      RightArm RightForeArm
      RightForeArm RightHand
      RightHand RightHand_dum1 RightHand_dum2
      RightHand_dum1 RightHandThumb1
      LeftUpLeg LeftLeg
      LeftLeg LeftFoot
      LeftFoot LeftToeBase
      RightUpLeg RightLeg
      RightLeg RightFoot
      RightFoot RightToeBase
   end

# File created by Blade
# Date/Time:  Tue Sep 23 19:18:47 2014
# Frame Rate: 120.000 fps
#------------------------------------------------------
:FULLY-SPECIFIED
:DEGREES
421
root -0.565736 34.266278 -1.195807 116.110727 12.418848 -35.231376
Spine -76.940539 -2.055052 33.808563
Head -21.540158 21.420554 42.306103
LeftShoulder -16.266697 28.801833 38.054376
LeftArm 97.607028 -70.133670 -93.593526
LeftForeArm -19.600302 -0.000000 106.860973
LeftHand -59.726653 -0.000000 0.803906
LeftHandThumb1 -26.253704 0.000000 33.147579
RightShoulder -35.585316 -38.564237 -5.521085
RightArm 33.706579 56.170355 69.476368
RightForeArm 81.241775 -0.000000 -3.746678
RightHand 4.034600 -0.000000 20.449396
RightHandThumb1 -24.326973 -0.000000 -32.862282
LeftUpLeg -124.449630 31.244709 -13.873748
LeftLeg -8.365396 -0.000000 0.000000
LeftFoot 5.933035 3.839649 8.534255
LeftToeBase 0.244560 -0.000000 -0.000000
RightUpLeg 9.464273 -0.619972 -30.511024
RightLeg 54.343806 -0.000000 -0.000000
RightFoot 35.958407 2.821083 -1.203064
RightToeBase 36.141222 -0.000000 -0.000000
422
root -0.551040 34.266849 -1.191886 116.084801 12.393118 -35.179395
Spine -76.865336 -2.068727 33.843067
Head -21.505218 21.340635 42.199544
LeftShoulder -16.290914 28.901209 38.018222
LeftArm 97.936344 -69.842624 -94.022211
LeftForeArm -19.302929 0.000000 106.776705
LeftHand -59.817792 -0.000000 0.893437
LeftHandThumb1 -26.253704 0.000000 33.147579
RightShoulder -35.590136 -38.709510 -5.402532
RightArm 33.862657 56.158434 69.574095
RightForeArm 81.354161 0.000000 -3.785814
RightHand 3.970691 -0.000000 20.455446
RightHandThumb1 -24.326973 -0.000000 -32.862282
LeftUpLeg -124.390179 31.221399 -13.757513
LeftLeg -8.253508 -0.000000 0.000000
LeftFoot 5.907813 3.890499 8.628543
LeftToeBase 0.172084 -0.000000 -0.000000
RightUpLeg 9.462904 -0.587884 -30.496490
RightLeg 54.398713 -0.000000 -0.000000
RightFoot 35.942690 2.792319 -1.278738
RightToeBase 36.109954 -0.000000 -0.000000
423
root -0.534437 34.266720 -1.187342 116.072140 12.376554 -35.129278
Spine -76.788025 -2.055466 33.947433
Head -21.477556 21.340127 42.018660
LeftShoulder -16.380362 28.987972 37.918073
LeftArm 97.989200 -69.585044 -94.180259
LeftForeArm -19.068654 0.000000 106.706659
LeftHand -59.804382 -0.000000 1.256337
LeftHandThumb1 -26.253704 0.000000 33.147579
RightShoulder -35.534840 -38.664612 -5.450167
RightArm 33.865106 56.065374 69.506353
RightForeArm 81.528700 -0.000000 -3.877878
RightHand 3.791668 -0.000000 20.712873
RightHandThumb1 -24.326973 -0.000000 -32.862282
LeftUpLeg -124.316214 31.201858 -13.608145
LeftLeg -8.172804 -0.000000 0.000000
LeftFoot 5.754879 3.990157 9.117167
LeftToeBase 0.743485 -0.000000 -0.000000
RightUpLeg 9.439072 -0.494051 -30.475424
RightLeg 54.421888 -0.000000 -0.000000
RightFoot 35.966785 2.756814 -1.136474
RightToeBase 36.130727 -0.000000 -0.000000
424
root -0.518068 34.264700 -1.182124 116.053954 12.370497 -35.093987
Spine -76.713307 -2.015037 33.979873
Head -21.450046 21.367845 41.850752
LeftShoulder -16.446553 29.043467 37.904909
LeftArm 98.270961 -69.093396 -94.625330
LeftForeArm -18.644853 -0.000000 106.618685
LeftHand -60.036874 -0.000000 1.080734
LeftHandThumb1 -26.253704 0.000000 33.147579
RightShoulder -35.527030 -38.634271 -5.472042
RightArm 33.874060 56.001394 69.487169
RightForeArm 81.450391 -0.000000 -3.897921
RightHand 3.829204 0.000000 20.604303
RightHandThumb1 -24.326973 -0.000000 -32.862282
LeftUpLeg -124.236821 31.206498 -13.476211
LeftLeg -8.141214 -0.000000 0.000000
LeftFoot 5.941024 4.105674 8.834431
LeftToeBase 0.210257 -0.000000 -0.000000
RightUpLeg 9.393972 -0.393866 -30.454496
RightLeg 54.486905 -0.000000 -0.000000
RightFoot 35.865470 2.741585 -1.149227
RightToeBase 36.131062 -0.000000 -0.000000
425
root -0.499655 34.260887 -1.176717 116.032452 12.342850 -35.046370
Spine -76.650267 -1.984773 33.975133
Head -21.415474 21.378808 41.681961
LeftShoulder -16.468957 29.137587 37.945585
LeftArm 98.427217 -68.637237 -95.017034
LeftForeArm -18.312560 0.000000 106.564654
LeftHand -60.093982 -0.000000 1.335012
LeftHandThumb1 -26.253704 0.000000 33.147579
RightShoulder -35.515138 -38.600769 -5.464356
RightArm 33.767318 55.903424 69.296611
RightForeArm 81.618561 0.000000 -4.032820
RightHand 3.740850 -0.000000 20.841647
RightHandThumb1 -24.326973 -0.000000 -32.862282
LeftUpLeg -124.077394 31.211036 -13.264541
LeftLeg -8.129119 -0.000000 0.000000
LeftFoot 5.835597 4.314695 9.353750
LeftToeBase 0.686105 -0.000000 -0.000000
RightUpLeg 9.360318 -0.315684 -30.467229
RightLeg 54.522245 -0.000000 -0.000000
RightFoot 35.860879 2.701755 -1.145662
RightToeBase 36.142952 -0.000000 -0.000000
